<?xml version="1.0" encoding="UTF-8" standalone="no"?>
<!-- Created with Inkscape (http://www.inkscape.org/) -->

<svg
   width="72.694878mm"
   height="72.694771mm"
   viewBox="0 0 72.694878 72.694771"
   version="1.1"
   id="svg5"
   inkscape:export-filename="logo.svg"
   inkscape:export-xdpi="96"
   inkscape:export-ydpi="96"
   xmlns:inkscape="http://www.inkscape.org/namespaces/inkscape"
   xmlns:sodipodi="http://sodipodi.sourceforge.net/DTD/sodipodi-0.dtd"
   xmlns="http://www.w3.org/2000/svg"
   xmlns:svg="http://www.w3.org/2000/svg">
  <sodipodi:namedview
     id="namedview7"
     pagecolor="#ffffff"
     bordercolor="#000000"
     borderopacity="0.25"
     inkscape:showpageshadow="2"
     inkscape:pageopacity="0.0"
     inkscape:pagecheckerboard="0"
     inkscape:deskcolor="#d1d1d1"
     inkscape:document-units="mm"
     showgrid="false" />
  <defs
     id="defs2">
    <inkscape:path-effect
       effect="fillet_chamfer"
       id="path-effect3295"
       is_visible="true"
       lpeversion="1"
       nodesatellites_param="F,0,0,1,0,1.5875,0,1 @ F,0,0,1,0,1.5875,0,1 @ F,0,0,1,0,1.5875,0,1 @ F,0,0,1,0,1.5875,0,1 @ F,0,0,1,0,1.5875,0,1 @ F,0,0,1,0,1.5875,0,1 @ F,0,0,1,0,1.5875,0,1 @ F,0,0,1,0,1.5875,0,1"
       unit="px"
       method="auto"
       mode="F"
       radius="6"
       chamfer_steps="1"
       flexible="false"
       use_knot_distance="true"
       apply_no_radius="true"
       apply_with_radius="true"
       only_selected="false"
       hide_knots="false" />
    <inkscape:path-effect
       effect="fillet_chamfer"
       id="path-effect3289"
       is_visible="true"
       lpeversion="1"
       nodesatellites_param="F,0,0,1,0,1.5875,0,1 @ F,0,0,1,0,1.5875,0,1 @ F,0,0,1,0,1.5875,0,1 @ F,0,0,1,0,1.5875,0,1 @ F,0,0,1,0,1.5875,0,1 @ F,0,0,1,0,1.5875,0,1 @ F,0,0,1,0,1.5875,0,1 @ F,0,0,1,0,1.5875,0,1"
       unit="px"
       method="auto"
       mode="F"
       radius="6"
       chamfer_steps="1"
       flexible="false"
       use_knot_distance="true"
       apply_no_radius="true"
       apply_with_radius="true"
       only_selected="false"
       hide_knots="false" />
    <inkscape:path-effect
       effect="fillet_chamfer"
       id="path-effect3283"
       is_visible="true"
       lpeversion="1"
       nodesatellites_param="F,0,0,1,0,1.5875,0,1 @ F,0,0,1,0,1.5875,0,1 @ F,0,0,1,0,1.5875,0,1 @ F,0,0,1,0,1.5875,0,1 @ F,0,0,1,0,1.5875,0,1 @ F,0,0,1,0,1.5875,0,1 @ F,0,0,1,0,1.5875,0,1 @ F,0,0,1,0,1.5875,0,1"
       unit="px"
       method="auto"
       mode="F"
       radius="6"
       chamfer_steps="1"
       flexible="false"
       use_knot_distance="true"
       apply_no_radius="true"
       apply_with_radius="true"
       only_selected="false"
       hide_knots="false" />
    <inkscape:path-effect
       effect="fillet_chamfer"
       id="path-effect3206"
       is_visible="true"
       lpeversion="1"
       nodesatellites_param="F,0,0,1,0,1.5875,0,1 @ F,0,0,1,0,1.5875,0,1 @ F,0,0,1,0,1.5875,0,1 @ F,0,0,1,0,1.5875,0,1 @ F,0,0,1,0,1.5875,0,1 @ F,0,0,1,0,1.5875,0,1 @ F,0,0,1,0,1.5875,0,1 @ F,0,0,1,0,1.5875,0,1"
       unit="px"
       method="auto"
       mode="F"
       radius="6"
       chamfer_steps="1"
       flexible="false"
       use_knot_distance="true"
       apply_no_radius="true"
       apply_with_radius="true"
       only_selected="false"
       hide_knots="false" />
  </defs>
  <g
     inkscape:label="Layer 1"
     inkscape:groupmode="layer"
     id="layer1"
     transform="translate(-23.162198,-49.943556)">
    <path
       style="fill:#6767e7;fill-opacity:1;stroke-width:0.759962;stroke-linecap:square;stroke-miterlimit:2.2"
       inkscape:path-effect="#path-effect3295"
       inkscape:original-d="m 46.691896,101.24667 c -5.037639,5.03719 -10.075276,10.07441 -15.112914,15.1116 l 4.725029,3.79158 5.231256,3.05547 c 8.60221,-11.21965 27.313119,-11.21965 35.915319,0 l 5.240781,-3.06253 4.732317,-3.80133 c -5.031595,-5.03159 -10.063198,-10.0632 -15.094802,-15.09479 -7.073658,6.29572 -18.562235,6.29625 -25.636986,0 z"
       d="m 45.569314,102.36915 c -4.289251,4.28887 -8.5785,8.57777 -12.86775,12.86664 -0.619985,0.61993 -0.568243,1.56731 0.115569,2.11603 l 2.248727,1.80448 a 21.471851,21.471851 34.516743 0 0 2.608955,1.79421 l 2.489648,1.45415 c 0.757074,0.44219 1.798925,0.23166 2.385244,-0.4199 8.631786,-9.59224 25.254663,-9.59224 33.88644,0 0.586318,0.65156 1.628092,0.86196 2.385072,0.41961 l 2.499515,-1.46063 a 21.429821,21.429821 145.4628 0 0 2.608285,-1.79512 l 2.257013,-1.81299 c 0.683536,-0.54907 0.735077,-1.49674 0.11512,-2.1167 -4.283242,-4.28324 -8.566489,-8.56649 -12.849737,-12.84973 -0.619958,-0.61996 -1.64994,-0.64353 -2.354113,-0.12169 -6.694805,4.96136 -16.478178,4.96172 -23.173799,-3e-5 -0.704183,-0.52183 -1.734204,-0.49826 -2.354189,0.12167 z"
       id="path3291"
       inkscape:export-filename="logo.svg"
       inkscape:export-xdpi="96"
       inkscape:export-ydpi="96" />
    <path
       style="fill:#6767e7;fill-opacity:1;stroke-width:0.759962;stroke-linecap:square;stroke-miterlimit:2.2"
       inkscape:path-effect="#path-effect3289"
       inkscape:original-d="m 29.459164,58.376928 -3.801246,4.731695 -3.062616,5.240112 c 11.19939,8.602836 11.199405,27.315062 0,35.917915 l 3.055553,5.23059 3.791494,4.7244 c 5.037639,-5.03723 10.075277,-10.07442 15.112915,-15.111641 -6.777608,-7.12903 -5.51897,-18.96839 -0.293151,-25.930122 -4.934316,-4.934314 -9.868632,-9.868632 -14.802949,-14.802949 z"
       d="m 28.464928,59.614527 -1.812774,2.256497 a 21.431924,21.431924 124.54068 0 0 -1.795279,2.608178 l -1.46053,2.498954 c -0.442404,0.75695 -0.232424,1.799216 0.418537,2.386196 9.573285,8.632357 9.573297,25.254311 -1e-6,33.886678 -0.650961,0.58698 -0.861071,1.62933 -0.418828,2.38637 l 1.454051,2.48909 a 21.473803,21.473803 55.479785 0 0 1.794367,2.60885 l 1.804262,2.2482 c 0.548759,0.68379 1.496211,0.73555 2.116194,0.11561 4.289253,-4.2889 8.578506,-8.57777 12.867758,-12.86667 0.619984,-0.619927 0.625492,-1.633458 0.08774,-2.325472 -5.238212,-6.740884 -4.34915,-16.766148 -0.157696,-23.419507 0.4672,-0.741617 0.396808,-1.810199 -0.223149,-2.430156 -4.185962,-4.18596 -8.371923,-8.371923 -12.557885,-12.557885 -0.619957,-0.619957 -1.567666,-0.56844 -2.116768,0.115067 z"
       id="path3285" />
    <path
       style="fill:#6767e7;fill-opacity:1;stroke-width:0.759962;stroke-linecap:square;stroke-miterlimit:2.2"
       inkscape:path-effect="#path-effect3283"
       inkscape:original-d="m 89.575844,58.362663 c -5.036349,5.036343 -10.072689,10.07269 -15.109037,15.109033 6.775077,7.130394 5.516168,18.968983 0.291861,25.931425 4.93388,4.933879 9.867768,9.867789 14.801648,14.801669 l 3.781839,-4.71774 3.048408,-5.22175 C 85.179005,95.652712 85.196012,76.91203 96.424216,68.320244 l -3.056013,-5.231989 z"
       d="m 88.453311,59.485194 c -4.287992,4.28799 -8.575979,8.575981 -12.863972,12.86397 -0.619957,0.619958 -0.625591,1.63365 -0.08803,2.325807 5.236107,6.741881 4.346778,16.766555 0.156511,23.42037 -0.467083,0.741691 -0.396582,1.810355 0.223375,2.430309 4.185526,4.18553 8.371058,8.37108 12.556584,12.55661 0.619957,0.61996 1.567081,0.56797 2.115459,-0.11612 l 1.795985,-2.24044 a 21.513751,21.513751 124.49618 0 0 1.79329,-2.60963 l 1.447682,-2.47979 c 0.442028,-0.75717 0.231753,-1.79963 -0.419193,-2.38663 -9.58424,-8.642666 -9.569083,-25.2912 0.03174,-33.916062 0.652051,-0.585768 0.86299,-1.627068 0.420786,-2.384134 l -1.454651,-2.490409 a 21.468092,21.468092 55.481581 0 0 -1.794282,-2.608899 l -1.805157,-2.249374 c -0.548751,-0.683789 -1.496176,-0.735535 -2.116134,-0.115578 z"
       id="path3279" />
    <path
       style="fill:#6767e7;fill-opacity:1;stroke-width:0.759962;stroke-linecap:square;stroke-miterlimit:2.2"
       inkscape:path-effect="#path-effect3206"
       inkscape:original-d="m 77.480332,49.376396 c -8.591786,11.228176 -27.332473,11.245183 -35.945065,0.03362 l -5.221735,3.048406 -4.717739,3.781828 c 5.031604,5.031603 10.063205,10.063204 15.094808,15.094809 7.129951,-6.7766 18.969422,-5.517484 25.931431,-0.291856 4.939062,-4.939058 9.87812,-9.878117 14.817179,-14.817178 L 82.713058,52.43295 Z"
       d="m 76.466985,50.597863 c -8.624863,9.600798 -25.273401,9.615953 -33.916073,0.03171 -0.586996,-0.650946 -1.629452,-0.86122 -2.38662,-0.419191 l -2.479785,1.447678 a 21.514085,21.514085 145.50383 0 0 -2.609626,1.79329 l -2.240437,1.795976 c -0.684088,0.548378 -0.736076,1.495501 -0.116119,2.115458 4.283249,4.283248 8.566496,8.566495 12.849744,12.849745 0.619957,0.619957 1.633578,0.625517 2.325662,0.08786 6.741632,-5.23738 16.767058,-4.347891 23.420649,-0.156524 0.741629,0.467182 1.810227,0.396769 2.430184,-0.223189 4.190707,-4.190703 8.381411,-8.381408 12.572115,-12.572114 0.619957,-0.619957 0.568227,-1.567401 -0.115543,-2.116175 L 83.951133,53.426593 A 21.465399,21.465399 34.51985 0 0 81.34228,51.632248 l -2.49117,-1.45515 c -0.75706,-0.442215 -1.798356,-0.231286 -2.384125,0.420765 z"
       id="path2476" />
    <circle
       style="fill:#494ae2;fill-opacity:1;stroke-width:1.12876;stroke-linecap:square;stroke-miterlimit:2.2"
       id="path3266"
       cx="59.509636"
       cy="86.290932"
       r="13.785312" />
  </g>
</svg>
